<svg width="300" height="300" viewBox="0 0 300 300" fill="none" xmlns="http://www.w3.org/2000/svg">
<path d="M128.593 181.374C111.116 193.838 89.6876 201.176 66.5344 201.176C59.862 201.176 53.3327 200.567 47 199.401V199.584C65.6255 215.429 89.8173 225 116.259 225C173.368 225 219.984 180.352 222.687 124.266C237.035 122.017 253 109.284 253 109.284L223.624 112.181C236.911 106.565 249.25 90.8823 249.25 90.8823L218.713 101.269C211.562 85.7673 195.809 75 177.526 75C175.384 75 173.277 75.1477 171.215 75.4335C149.192 78.485 132.241 97.2754 132.241 120C132.241 120.412 132.247 120.823 132.258 121.233C126.431 120.821 120.789 120.025 115.815 118.677C91.5612 112.101 47.444 99.0223 47.444 99.0223C47.444 99.0223 45.6682 109.412 53.2156 122.206C60.763 135 69.1983 142.752 69.1983 142.752H56.1728C56.1728 150 86.513 166.531 86.513 166.531H73.0941C80.4993 173.059 89.3198 177.802 98.8698 180.391C108.42 182.981 118.442 183.346 128.158 181.46C128.303 181.432 128.448 181.403 128.593 181.374Z" fill="url(#paint0_linear_10_17)"/>
<defs>
<linearGradient id="paint0_linear_10_17" x1="253" y1="75" x2="47" y2="225" gradientUnits="userSpaceOnUse">
<stop stop-color="#0094FF"/>
<stop offset="1" stop-color="#00FFFF"/>
</linearGradient>
</defs>
</svg>
