<svg width="300" height="300" viewBox="0 0 300 300" fill="none" xmlns="http://www.w3.org/2000/svg">
<path d="M181 60C174.434 60 167.932 61.2652 161.866 63.7233C155.8 66.1814 150.288 69.7843 145.645 74.3263C141.002 78.8683 137.319 84.2604 134.806 90.1948C132.293 96.1292 131 102.49 131 108.913V131H117V169H131V240H169V169H183V131H169V108.913C169 107.371 169.31 105.845 169.913 104.42C170.516 102.996 171.4 101.702 172.514 100.612C173.629 99.5217 174.952 98.657 176.408 98.067C177.864 97.4771 179.424 97.1734 181 97.1734V60Z" fill="url(#paint0_linear_10_15)"/>
<defs>
<linearGradient id="paint0_linear_10_15" x1="117" y1="240" x2="183" y2="60" gradientUnits="userSpaceOnUse">
<stop stop-color="#0094FF"/>
<stop offset="1" stop-color="#00FFD1"/>
</linearGradient>
</defs>
</svg>
