<svg width="300" height="300" viewBox="0 0 300 300" fill="none" xmlns="http://www.w3.org/2000/svg">
<path d="M240 150C240 170.822 232.78 191 219.571 207.095C206.362 223.191 187.98 234.209 167.558 238.271C147.136 242.333 125.938 239.188 107.574 229.373C89.211 219.558 74.8191 203.679 66.8509 184.442C58.8826 165.205 57.8311 143.8 63.8754 123.874C69.9197 103.949 82.6859 86.7358 99.9987 75.1678C117.312 63.5997 138.1 58.3925 158.822 60.4334C179.543 62.4743 198.916 71.637 213.64 86.3604L186.776 113.224C178.268 104.715 167.073 99.4203 155.098 98.2409C143.123 97.0615 131.11 100.071 121.105 106.756C111.1 113.441 103.723 123.388 100.23 134.902C96.7371 146.417 97.3447 158.786 101.949 169.903C106.554 181.02 114.871 190.196 125.483 195.868C136.095 201.541 148.345 203.358 160.147 201.01C171.948 198.663 182.571 192.296 190.204 182.995C197.837 173.693 202.01 162.033 202.01 150H240Z" fill="url(#paint0_linear_10_16)"/>
<path d="M240 150V131H150V169H237.972C239.31 162.804 240 156.437 240 150Z" fill="url(#paint1_linear_10_16)"/>
<defs>
<linearGradient id="paint0_linear_10_16" x1="60" y1="240" x2="240" y2="60" gradientUnits="userSpaceOnUse">
<stop offset="0.0001" stop-color="#FFD600"/>
<stop offset="1" stop-color="#FF0000"/>
</linearGradient>
<linearGradient id="paint1_linear_10_16" x1="60" y1="240" x2="240" y2="60" gradientUnits="userSpaceOnUse">
<stop offset="0.0001" stop-color="#FFD600"/>
<stop offset="1" stop-color="#FF0000"/>
</linearGradient>
</defs>
</svg>
