<svg width="1392" height="1392" viewBox="0 0 1392 1392" fill="none" xmlns="http://www.w3.org/2000/svg">
<circle cx="696" cy="696" r="696" fill="white"/>
<path d="M445.501 846C445.501 846 428.63 662.5 503.13 520.5C577.63 378.5 728.13 262 728.13 262" stroke="#2FE683" stroke-width="26" stroke-linecap="round"/>
<path d="M788.5 816C788.5 816 706.5 792.5 660 634C613.501 475.5 728.145 263.118 728.145 263.118" stroke="#2FE683" stroke-width="28" stroke-linecap="round"/>
<path d="M1198.97 452.12C1198.97 452.12 1049.37 508.43 918.306 452.515C787.246 396.601 724.361 249.637 724.361 249.637C724.361 249.637 873.968 193.327 1005.03 249.242C1136.09 305.156 1198.97 452.12 1198.97 452.12Z" fill="#2FE683"/>
<path d="M648 950.063C648 1064.94 554.875 1158.06 440 1158.06C325.125 1158.06 232 1064.94 232 950.063C232 835.188 345.5 747.563 440 823.563C541 745.063 648 835.188 648 950.063Z" fill="#CC67CE"/>
<path d="M1023.47 764.636C1101.42 849.018 1096.2 980.613 1011.82 1058.56C927.441 1136.51 795.846 1131.3 717.897 1046.91C639.948 962.533 663.862 821.153 784.847 812.855C805.77 686.659 945.521 680.255 1023.47 764.636Z" fill="#CC67CE"/>
</svg>
